<svg xmlns="http://www.w3.org/2000/svg" version="1.1" xmlns:xlink="http://www.w3.org/1999/xlink" xmlns:svgjs="http://svgjs.dev/svgjs" width="1000" height="1125" viewBox="0 0 1000 1125"><g transform="matrix(1,0,0,1,0,0)"><svg viewBox="0 0 320 360" data-background-color="#ffffff" preserveAspectRatio="xMidYMid meet" height="1125" width="1000" xmlns="http://www.w3.org/2000/svg" xmlns:xlink="http://www.w3.org/1999/xlink"><g id="tight-bounds" transform="matrix(1,0,0,1,0,0)"><svg viewBox="0 0 320 360" height="360" width="320"><g><svg></svg></g><g><svg viewBox="0 0 320 360" height="360" width="320"><g><path xmlns="http://www.w3.org/2000/svg" d="M165.217 303.356c-1.404-1.755-2.809-0.702-2.808-1.755-8.426 2.106-24.223-3.511-30.894-2.809 1.404-2.106-2.106-1.755-2.106-3.159-1.404 2.106-2.809 0-4.915 0.702-2.106-5.266-10.532-1.404-11.585-8.075-4.915 0-6.67-2.809-11.586-5.617 0.351-0.351 0.702-0.351 1.054-0.702-2.457-0.351-2.457-1.755-4.564-1.755l0.702-1.405c-3.862-0.702-5.266-6.67-10.883-8.776-1.755-0.351-5.617-6.319-7.723-7.724-1.053-0.702-2.809-0.702-0.352-1.053-0.351-0.351-0.351-1.053 0-1.404-2.457-0.702-2.809-2.809-5.968-3.862-0.351-1.053 0.702-1.755 0-2.457-0.702-0.351-1.755 0.351-2.457 0-0.351 6.319 6.67 7.021 8.777 12.287-0.702-0.702-1.755-2.809-2.458-1.404-0.351 1.053 2.809 4.915 2.809 2.808-1.053 0.702-1.404-1.053-0.703-1.404 1.053 1.755 3.16 1.404 3.16 2.809-1.053 1.053-2.457-1.053-2.106 0.702 3.16 1.755 2.809 3.511 4.563 5.968-1.404-1.755-1.755 1.404-3.159 0-0.351-5.266-6.319-4.213-6.319-9.479-0.702-1.755-1.404-0.351-2.458-1.053 1.404-1.404-4.213-6.319-4.213-4.564-1.755-2.106-0.702-2.809-1.053-4.213-1.404-0.351-0.351 1.404-1.404 0.351 1.404-2.457-1.755-5.617-3.862-8.074l1.405-0.702c-2.457-1.404-2.809-4.213-4.564-7.373-2.106 3.16 4.213 10.181 3.159 11.585 0 0.351 2.457 3.16 3.16 4.564 2.809 4.915 4.915 10.883 8.777 13.692-0.702-0.351-0.351-2.457 0.702-1.404 0 1.053-0.702 2.106-0.702 3.159 2.106 2.106 3.862 3.862 5.968 5.968-4.564-2.809-9.128-5.617-12.288-9.83 1.755-0.351 3.511 2.809 4.915 2.458-3.511-2.809-2.457-3.862-3.861-7.372-1.404-1.053 0.351 1.404-1.054 1.755-4.564-4.213-8.075-6.67-10.181-10.532 0.351-0.351 0.702-0.702 0.703-1.404-0.351-0.351-0.351-0.351-0.703-0.702 2.106 2.106 2.809 3.862 5.266 4.212-1.053-1.053 0-1.404-1.404-2.457-0.702-1.404-1.755 0.702-2.457-0.351 0.702-1.053 0-2.457 0-3.511-0.702 0-1.404 0-1.756-1.053-0.702-0.351-1.053 0-1.404 0.702-0.351-0.351-0.351-1.053-0.702-1.404v-0.351c-0.351-0.351-0.702-1.053-1.053-1.405-2.809-7.372-4.564-17.202-8.426-23.521 1.053-4.213-0.702-12.638-1.755-14.745 1.053-1.755 0.351-9.83-0.351-11.234-1.755 0.702 0.351 4.564-1.404 5.617-1.755-7.723 1.053-16.5 0.351-23.521 0.702 0 1.404 0 1.404-0.351-1.053-1.053 0.702-3.16 0.351-5.617 1.404-3.16-3.16 4.564-3.16 7.723-0.351 0.702-1.755 0-1.404 1.756 0 2.457 0.702 7.372-0.702 10.883-0.702 0-0.702-0.702-1.404-0.351-0.351 1.755-0.702 3.862-1.053 5.617-0.351-0.702-0.702-1.755-0.703-2.107-1.755-8.777 0-18.958-0.702-26.33 1.404 0 1.404-2.106 2.458-2.808-0.351 2.809-1.053 6.319 0.702 7.021 1.404-13.692 4.213-28.787 10.532-43.532 4.564-10.883 11.234-21.766 19.308-30.543 0.702 1.053-0.351 3.511 0 4.564 7.021-7.372 11.585-16.149 19.309-21.064 0.351 1.755-3.16 3.16-3.16 4.564 3.16-3.16 4.213-2.106 7.724-3.159 1.053-1.404-1.404 0-1.756-1.405 2.106-1.404 3.511-3.16 4.915-4.212 0 0.351-0.351 0.351-0.351 0.702 3.862-1.053 4.213-3.16 7.022-3.862-0.351-0.351-1.053-0.702-2.107-0.351 0.702-0.351 1.755-1.053 2.809-1.404-0.351 0-0.351 0.351-0.702 0.351 2.106-1.053 0.351 0.351 0.351 1.053 0.351 0 0.702-0.351 0.702-0.351-2.106 1.404-3.511 2.106-4.213 4.564 1.053-0.702 1.404 0 2.809-1.054 1.404-0.702-0.351-1.755 0.702-2.457 1.053 0.702 2.457 0.351 3.51 0.351 0-0.702 0.351-1.404 1.054-1.755 0.351-0.702 0-1.053-0.352-1.053 0.351-0.351 0.702-0.351 1.405-0.703 0 0 0.351 0 0.351 0.351 5.968-2.809 12.638-5.266 18.957-7.372 3.862-0.351 8.777-0.351 10.883-2.808-0.702 0-1.404 0.351-1.755 0 0.351 0 1.053-0.351 1.404-0.351 0.702 0.702 1.755 0 0.702 1.404 0.351 0 0.351 0 0.703-0.351 0 0.351 0 0.351 0.351 0.702 0.351 0 0.702-0.351 1.053-1.053 0.351 0 0.702 0 1.053-0.351l-0.351 0.351c2.809-0.702 5.266-0.351 9.128-1.054 0-0.351 0-0.702 0-1.053 0.702 0 1.053-0.351 1.755-0.351v0.351c1.404-0.702 2.809 0.702 2.808 0 0.351 0 0.351 0 0.703 0 0 0.702-0.351 1.053-0.351 1.405 1.755 0 2.809 0 3.51-1.054-0.351-0.351-0.702-0.351-1.053-0.351 0.702 0 1.404-0.351 2.106-0.702 1.053 0.351 1.404 0.702 1.405 2.107 1.755-3.16 7.372 0.702 9.829 0 1.053 0 0.702-1.404 1.405-2.107 0.351 0 0.702 0 1.053 0 1.755 1.404 4.213 2.809 7.372 3.16-2.809-0.702 0.351-1.053 0.702-1.405-0.702 0-0.702-0.351-0.702-0.702 1.053 0 2.106 0.351 3.16 0.351 0 0.702 0.351 1.053 1.053 1.054 0.702 0 0.702-0.351 0.702-1.054 1.053 0 1.755 0 2.809 0.351-0.351 1.404 1.755 1.755 2.457 2.809-2.809-0.702-5.968-1.755-7.021 0 11.234 2.457 23.521 5.968 35.457 11.936 0 0 0 0 0 0.351h0.352c2.106 1.053 4.213 2.106 6.319 3.16 1.404 0.702 2.457 1.404 3.861 2.457 0 0.351 0 0.702 0.703 0.702h0.351c1.404 1.053 2.809 1.755 4.212 2.809 1.404 2.106 2.809 4.915 5.266 4.213 5.266 8.075 10.883 11.234 15.447 19.659 0.351-1.404 1.404 3.16 3.16 3.511-2.809-0.351 1.755 1.755-1.053 1.404 2.457 2.457 3.16 3.511 3.51 6.319-0.702-1.404-1.053-1.755-1.404-0.351-0.351 2.106 2.457-0.351 3.511 1.756-2.106 0-1.404 1.404-1.054 3.159 1.053-1.053 0.702-2.106 1.756-1.755 1.404 1.404-0.702 1.755-0.351 2.809 1.053-1.404 1.404-0.702 2.808 0-1.755 0.351 1.053 2.809-1.053 1.755 1.404 1.755 1.755 2.809 1.053 4.564-1.404-2.106-0.351-3.511-2.457-3.16 4.213 3.511 2.106 11.585 7.021 12.287-3.16 0.702 0 2.106-1.755 2.458 2.106 0.702 1.053 3.511 3.51 4.213-0.351 1.755-1.053 2.809-1.404 4.563 1.053 1.404 1.404 4.213 3.16 4.564-1.053 1.053-0.351 3.862-1.404 4.915 1.404-0.702 2.106-0.702 3.159 0.702-1.755 1.404-0.351 2.809-1.404 3.16 3.16 8.075-0.702 24.575 1.053 30.894-2.106-1.053-1.404 2.457-2.808 2.457 2.457 1.053 0.351 2.809 1.404 4.564-4.915 2.809 0 10.532-6.67 12.287 0.702 4.915-2.106 7.021-4.213 12.288-0.351-0.351-0.351-0.702-0.702-1.054-0.351 2.457-1.755 2.809-1.054 4.915l-1.404-0.702c0 3.862-5.968 5.968-7.372 11.936-0.351 1.755-5.617 6.319-7.022 8.777-0.702 1.053-0.351 2.809-1.053 0.351-0.351 0.351-1.053 0.351-1.404 0.351-0.351 2.457-2.457 3.16-3.16 6.319-0.702 0.351-1.755-0.702-2.457 0.351 0 0.702 0.702 1.755 0.351 2.458 6.319-0.351 6.319-7.723 11.234-10.181-0.351 1.053-2.457 2.106-1.053 2.808 1.053 0 4.213-3.511 2.457-3.159 1.053 0.702-1.053 1.404-1.404 1.053 1.755-1.404 1.053-3.16 2.458-3.511 1.053 0.702-1.053 2.457 1.053 2.107 1.404-3.16 3.16-3.511 5.266-5.266-1.404 1.404 1.755 1.755 0.351 3.159-5.266 1.053-3.511 7.021-8.777 7.724-1.404 1.053-0.351 1.404-0.702 2.457-1.755-1.053-5.617 4.915-4.213 4.564-1.755 1.755-2.809 1.053-4.212 1.404-0.351 1.404 1.404 0.351 0.702 1.405-2.457-1.053-5.617 2.457-7.724 4.915l-1.053-1.054c-1.053 2.809-3.862 3.16-7.021 5.266 3.511 1.755 9.479-5.617 11.234-4.564 0.351 0 3.16-2.809 4.213-3.861 4.564-3.511 10.181-6.319 12.287-10.181-0.351 0.702-2.457 0.702-1.404-0.351 1.053-0.351 2.106 0.351 3.159 0.351 5.617-7.723 12.638-14.043 17.905-23.17 0.351-0.351 0.702-1.053 1.053-1.756-0.702 2.106-1.755 3.862-2.458 5.968-5.617 3.862-7.723 15.096-14.393 16.851 0.351 3.862-3.16 4.915-4.915 9.479-1.053 1.404-1.755-1.053-2.809 0.702 1.053 4.915-8.777 4.564-8.425 9.128-0.702 0.351-1.755 0.702-2.458 1.404h-0.351c-0.351 0.351-0.351 0.351-0.702 0.702-1.755 1.053-3.16 2.106-4.564 3.16-4.915 2.809-11.585 4.915-16.851 7.723v-0.351c-1.404 0.702-3.16 0.351-2.809 1.756-1.053 0.702-2.106 1.404-3.159 2.106-0.351 0-0.351 0-0.702 0 0 0-0.351-0.351-0.702-0.351-0.702 0-0.702 0-1.054 0.351-4.564 0.351-10.532 2.457-12.287 3.862-1.755-1.053-9.83 0.702-11.234 1.404 0.702 1.053 2.809 0 4.564 0-1.053 0.351-2.106 0.702-2.458 1.404-0.351 0-0.351 0-0.702 0-0.351-1.053-1.404 0-1.755-0.351h0.351c-0.351-1.404-1.404-2.106-3.16-1.755 0 0.702 0 1.053-0.351 1.755 0.702 0 2.809-1.053 2.809 0-0.351 0-0.351 0.351 0 0.351-0.702 0.702-1.755 0.702-2.458 1.054-1.404 0-3.16 0-4.563 0-0.351-0.351-0.702-0.351-1.405-0.703-0.351 0.351-1.053 0.351-1.404 0.703-2.106 0-4.564 0.351-6.319 0.702 0-0.702 0-1.404-0.702-1.405-1.053 1.404-3.16-0.351-5.617 0.352-2.457-0.702 1.404 1.053 4.915 1.755-0.351 0.351-0.702 0.702-1.756 1.053M116.068 308.271c-4.915-4.564-15.096-6.67-16.851-10.181-2.809-0.351-7.021-5.617-10.532-6.319 1.755 0 0.351-1.053 0-1.755-0.702 0.702-1.404 1.053-2.106 1.053 0-2.809-2.809-4.564-5.266-6.319 1.755 1.053 3.16 1.755 5.266 2.106 0-0.702 0-1.404 0.702-1.404 2.457 2.457 5.266 4.915 8.425 7.372 4.213 3.862 25.979 13.692 29.841 15.447 0 0-0.702 1.404-0.351 1.404 1.755 1.053 3.16-1.053 3.511 1.404-5.617 0.702-7.723-3.16-12.639-2.808M277.909 226.824v0.351 0c-0.351 0 0-0.351 0-0.351M136.079 64.281c-0.351 0.351-0.702 0.351-0.702 0.351 0-0.351 0.351-0.351 0.702-0.351M129.409 66.036c0 0.351 0 0.351 0 0 0 0.351 0 0.351 0 0 0 0.351 0 0 0 0M106.238 73.408v0c0.351-0.351 0.351-0.351 0.703-0.351-0.351 0-0.702 0.351-0.703 0.351M162.409 61.823c-0.702 0-1.053 0-1.404-0.351 0.351 0 0.702 0 1.053 0h0.351c0 0 0 0 0 0.351M168.728 62.525c-0.351-0.351-1.404-0.702-2.457-0.702 0-0.351 0.351-0.702 0.351-0.702 0.351 0 0.702 0 1.053 0 0 0 0.351 0 0.351 0.351 0 0 0 0 0-0.351 0.351 0 0.351 0 0.702 0 0.351 0.702 0.702 1.053 0 1.404M180.313 63.579c-1.755 0.351-2.809-0.351-4.564-1.405 1.053 0 2.457 0.351 3.511 0.702 0.351 0 0.702 0.351 1.053 0.703M305.292 113.43c-0.702 0.351-1.053 0.351-1.755-1.053-5.617-11.936-15.798-29.138-30.543-43.532-14.394-14.745-33.702-26.681-51.255-33.001 1.053 0.351 2.457 1.053 1.755 1.756-15.447-5.968-30.192-9.479-44.234-10.883-37.915-5.968-77.585 2.106-108.128 21.766 0.351 0.702 0.351 1.053-0.702 1.755-11.234 7.021-27.032 19.309-39.671 35.458-12.638 16.149-22.468 36.511-26.681 54.766 0.351-1.053 0.702-2.809 1.405-2.107-9.128 36.16-6.67 67.053 5.968 93.735 0.702-0.702-1.755-4.213 0.351-3.862 1.404 3.862 3.16 8.075 5.266 11.936 2.457 5.617 5.266 12.989 9.128 14.745-9.83-19.309-16.5-41.426-17.203-61.085 1.404 2.809 1.053 8.777 3.16 11.234 0.702-13.34-2.457-31.245 2.106-43.883-1.053 6.67-1.755 15.798-1.053 24.925 0 6.67 3.16 25.277 5.266 27.032-0.351-0.351-0.351-2.106 0-2.106 1.053 2.106-1.404 3.16 0.351 3.511 0-0.702 0.351-0.702 0.702-0.703 3.511 7.723 8.075 19.66 11.585 25.628 4.213 7.723 9.83 14.745 16.149 21.064 0 0.351 0.351 0.351 0.352 0.702 0.702 1.755 3.16 3.862 3.861 5.266 0.351 0.702-0.351 1.755 0 2.458 5.266 9.83 12.989 19.66 22.468 27.383 5.968 7.021 15.447 14.394 27.032 20.713 11.234 5.968 24.223 10.883 36.16 13.691 8.426 2.106 18.606 2.457 24.926 3.862 8.426 1.755 23.17-0.702 30.542-2.107 44.234-6.67 88.117-36.862 110.235-80.393 22.819-43.883 22.117-97.596 2.457-138.671" fill="#ee3e38" fill-rule="nonzero" stroke="none" stroke-width="1" stroke-linecap="butt" stroke-linejoin="miter" stroke-miterlimit="10" stroke-dasharray="" stroke-dashoffset="0" font-family="none" font-weight="none" font-size="none" text-anchor="none" style="mix-blend-mode: normal" data-fill-palette-color="tertiary"></path></g><g transform="matrix(1,0,0,1,80,115.3922789539228)"><svg viewBox="0 0 160 129.2154420921544" height="129.2154420921544" width="160"><g><svg viewBox="0 0 160 129.2154420921544" height="129.2154420921544" width="160"><g><svg viewBox="0 0 160 129.2154420921544" height="129.2154420921544" width="160"><g id="textblocktransform"><svg viewBox="0 0 160 129.2154420921544" height="129.2154420921544" width="160" id="textblock"><g><svg viewBox="0 0 160 129.2154420921544" height="129.2154420921544" width="160"><g transform="matrix(1,0,0,1,0,0)"><svg width="160" viewBox="-3.2699999809265137 -50.38999938964844 78.40999603271484 63.33000183105469" height="129.2154420921544" data-palette-color="#ee3e38"><path d="M68.46 10.94L68.46 10.94Q68.46 11.47 68.21 11.96L68.21 11.96Q67.24 12.5 66.19 12.72 65.14 12.94 64.11 12.94L64.11 12.94Q63.62 12.94 63.06 12.92 62.5 12.89 62.06 12.79L62.06 12.79Q61.91 12.74 61.72 12.6 61.52 12.45 61.33 12.45L61.33 12.45Q60.84 12.45 60.4 12.62 59.96 12.79 59.47 12.79L59.47 12.79Q59.23 12.79 59.01 12.65 58.79 12.5 58.54 12.45L58.54 12.45Q58.2 12.35 57.86 12.4 57.52 12.45 57.13 12.45L57.13 12.45Q56.59 12.45 56.18 12.3 55.76 12.16 55.42 11.77L55.42 11.77Q54.2 11.62 53.03 11.3 51.86 10.99 50.68 10.62 49.51 10.25 48.34 9.94 47.17 9.62 45.95 9.52L45.95 9.52Q45.65 9.18 45.26 9.01 44.87 8.84 44.68 8.45L44.68 8.45Q44.43 8.45 44.34 8.52 44.24 8.59 43.99 8.59L43.99 8.59Q43.16 7.91 42.21 7.42 41.26 6.93 40.26 6.49 39.26 6.05 38.31 5.59 37.35 5.13 36.52 4.39L36.52 4.39 36.28 4.39Q35.89 4.44 35.62 4.22 35.35 4 34.96 4L34.96 4Q34.72 4 34.57 4.05L34.57 4.05Q34.42 3.66 34.13 3.42 33.84 3.17 33.52 2.95 33.2 2.73 32.91 2.51 32.62 2.29 32.47 1.95L32.47 1.95Q31.25 1.51 30.1 0.9 28.96 0.29 28.08-0.68L28.08-0.68Q27.1-0.78 26.46-1.29 25.83-1.81 25.29-2.59L25.29-2.59Q24.12-2.98 23.14-3.61 22.17-4.25 21.22-4.93 20.26-5.62 19.21-6.18 18.16-6.74 16.85-6.98L16.85-6.98Q16.8-7.32 16.55-7.5 16.31-7.67 15.99-7.79 15.67-7.91 15.38-8.01 15.09-8.11 14.94-8.4L14.94-8.4Q14.79-8.4 14.65-8.42 14.5-8.45 14.36-8.45L14.36-8.45Q14.21-8.45 14.04-8.42 13.87-8.4 13.72-8.4L13.72-8.4 13.77-8.54Q13.77-8.74 13.65-8.79 13.53-8.84 13.33-8.89 13.13-8.94 12.99-9.03 12.84-9.13 12.84-9.47L12.84-9.47 12.7-9.47Q12.16-9.47 11.72-9.67 11.28-9.86 10.74-9.96L10.74-9.96Q10.64-9.42 10.64-8.94L10.64-8.94 10.64-8.06Q10.64-5.86 11.13-3.44 11.62-1.03 12.65 0.88L12.65 0.88Q13.67 1.27 14.4 1.9 15.14 2.54 15.82 3.37L15.82 3.37Q15.87 4.69 14.87 5.59 13.87 6.49 12.55 6.49L12.55 6.49Q11.82 6.49 11.21 6.13 10.6 5.76 10.21 5.08L10.21 5.08Q9.91 5.08 9.67 5.2 9.42 5.32 9.08 5.32L9.08 5.32Q8.94 5.32 8.79 5.27L8.79 5.27Q8.3 4.44 7.84 3.81 7.37 3.17 7.23 2.1L7.23 2.1Q6.69 1.86 6.57 1.22 6.45 0.59 6.01 0.2L6.01 0.2Q5.81-2 5.49-4.2 5.18-6.4 5.18-8.59L5.18-8.59Q5.18-9.08 5.22-9.59 5.27-10.11 5.32-10.64L5.32-10.64Q5.22-10.89 5.05-11.11 4.88-11.33 4.79-11.57L4.79-11.57Q3.81-11.33 2.76-11.11 1.71-10.89 0.63-10.89L0.63-10.89Q-0.05-10.89-1.03-11.11-2-11.33-2.54-11.72L-2.54-11.72Q-2.93-11.96-3.1-12.62-3.27-13.28-3.27-13.77L-3.27-13.77Q-3.27-14.6-2.98-15.45-2.69-16.31-2.2-16.94L-2.2-16.94Q0.2-17.92 2.27-19.34 4.35-20.75 6.35-22.41L6.35-22.41Q6.4-22.9 6.52-23.39 6.64-23.88 6.64-24.41L6.64-24.41Q6.64-25 6.35-25.54L6.35-25.54Q6.64-25.83 6.64-26.29 6.64-26.76 6.88-27.15L6.88-27.15 6.88-27.44Q6.88-27.64 6.86-27.83 6.84-28.03 6.69-28.22L6.69-28.22Q7.03-30.13 7.23-32.01 7.42-33.89 7.42-35.89L7.42-35.89Q7.42-36.04 7.59-36.69 7.76-37.35 7.81-37.6L7.81-37.6Q8.01-38.72 8.08-39.82 8.15-40.92 8.3-42.04L8.3-42.04Q8.35-42.43 8.5-43.07 8.64-43.7 8.64-43.95L8.64-43.95Q8.64-44.29 8.52-44.41 8.4-44.53 8.3-44.82L8.3-44.82Q8.59-45.95 8.62-47.09 8.64-48.24 8.79-49.37L8.79-49.37Q9.62-49.71 10.11-50.05 10.6-50.39 11.52-50.39L11.52-50.39 11.62-50.39Q11.72-49.8 12.06-49.29 12.4-48.78 12.77-48.27 13.13-47.75 13.43-47.29 13.72-46.83 13.72-46.39L13.72-46.39Q13.72-45.56 13.57-44.58 13.43-43.6 13.33-42.77L13.33-42.77Q13.09-40.58 12.89-38.45 12.7-36.33 12.3-34.13L12.3-34.13Q12.45-33.45 12.45-32.86L12.45-32.86Q12.45-31.98 12.3-31.1 12.16-30.22 12.16-29.3L12.16-29.3Q12.16-28.86 12.23-28.37 12.3-27.88 12.5-27.49L12.5-27.49Q14.16-27.93 15.48-29.3L15.48-29.3Q15.67-29.49 15.89-29.81 16.11-30.13 16.36-30.32L16.36-30.32Q16.85-30.71 17.41-31.03 17.97-31.35 18.51-31.69L18.51-31.69Q19.78-32.52 20.97-33.42 22.17-34.33 23.39-35.21L23.39-35.21Q27-37.84 30.4-40.7 33.79-43.55 37.01-46.73L37.01-46.73Q37.16-47.56 37.6-48.05 38.04-48.54 38.38-49.22L38.38-49.22Q39.31-49.56 39.99-50.24L39.99-50.24Q40.28-50.15 40.6-50.12 40.92-50.1 41.24-50.1 41.55-50.1 41.87-50.07 42.19-50.05 42.43-49.9L42.43-49.9Q42.48-49.17 42.58-48.58 42.68-48 43.16-47.46L43.16-47.46Q43.16-47.36 43.19-47.27 43.21-47.17 43.21-47.07L43.21-47.07Q43.21-46.53 42.92-46.19 42.63-45.85 42.58-45.36L42.58-45.36 40.04-42.82Q38.77-41.55 37.7-40.09L37.7-40.09Q37.3-40.04 37.01-39.84 36.72-39.65 36.45-39.43 36.18-39.21 35.89-39.01 35.6-38.82 35.25-38.72L35.25-38.72Q34.38-37.55 33.25-36.6 32.13-35.64 30.96-34.77 29.79-33.89 28.64-32.98 27.49-32.08 26.51-31.01L26.51-31.01Q25.49-30.52 24.54-29.86 23.58-29.2 23-28.22L23-28.22 22.75-28.22Q22.51-28.22 22.36-28.1 22.22-27.98 21.97-27.98L21.97-27.98Q19.34-25.68 16.5-23.66 13.67-21.63 11.08-19.24L11.08-19.24 11.08-18.02Q11.91-17.53 12.89-17.11 13.87-16.7 14.82-16.21 15.77-15.72 16.63-15.16 17.48-14.6 18.12-13.82L18.12-13.82Q18.21-13.87 18.36-13.87L18.36-13.87Q18.8-13.87 19.04-13.6 19.29-13.33 19.87-13.43L19.87-13.43Q20.07-12.65 20.75-12.3 21.44-11.96 22.12-11.72L22.12-11.72Q22.71-11.13 23.19-10.62 23.68-10.11 24.61-9.96L24.61-9.96Q24.71-9.77 24.76-9.52 24.8-9.28 24.95-9.08L24.95-9.08Q25.88-8.79 26.73-8.25 27.59-7.71 28.42-7.15 29.25-6.59 30.1-6.08 30.96-5.57 31.93-5.27L31.93-5.27Q32.08-4.79 32.5-4.59 32.91-4.39 33.15-4L33.15-4 34.03-4Q34.18-3.76 34.42-3.54 34.67-3.32 34.77-2.93L34.77-2.93Q35.16-2.83 35.64-2.66 36.13-2.49 36.52-2.25L36.52-2.25Q36.67-2.1 36.74-1.9 36.82-1.71 37.01-1.56L37.01-1.56Q37.3-1.32 37.92-1.2 38.53-1.07 38.96-0.83L38.96-0.83Q39.84-0.34 40.67 0.27 41.5 0.88 42.43 1.42L42.43 1.42 44.34 2.44Q44.82 2.69 45.24 2.98 45.65 3.27 46.09 3.52L46.09 3.52Q46.97 3.91 47.97 4.03 48.97 4.15 49.8 4.54L49.8 4.54Q50.05 4.69 50.15 4.91 50.24 5.13 50.49 5.27L50.49 5.27Q50.88 5.52 51.71 5.62 52.54 5.71 53.08 5.96L53.08 5.96Q53.76 6.25 54.42 6.52 55.08 6.79 55.76 7.18L55.76 7.18Q57.23 7.28 58.67 7.52 60.11 7.76 61.52 8.01 62.94 8.25 64.38 8.45 65.82 8.64 67.29 8.59L67.29 8.59Q67.29 8.69 67.41 8.72 67.53 8.74 67.63 8.74L67.63 8.74Q67.97 9.28 68.21 9.81 68.46 10.35 68.46 10.94ZM75.14-3.56L75.14-3.56Q75-2.88 74.53-2.47 74.07-2.05 73.44-1.81 72.8-1.56 72.14-1.49 71.48-1.42 70.94-1.42L70.94-1.42Q70.7-1.42 70.48-1.44 70.26-1.46 70.02-1.46L70.02-1.46Q69.77-1.46 69.77-1.22 69.77-0.98 69.53-0.88L69.53-0.88Q69.28-0.98 69.04-1.03 68.8-1.07 68.55-1.07L68.55-1.07Q68.21-1.07 67.89-1.03 67.58-0.98 67.28-0.98L67.28-0.98Q66.89-0.98 66.72-1.07 66.55-1.17 66.43-1.29 66.31-1.42 66.18-1.56 66.06-1.71 65.82-1.81L65.82-1.81Q65.48-1.95 65.26-1.86 65.04-1.76 64.6-2.15L64.6-2.15Q64.01-2.64 63.6-3.34 63.18-4.05 62.79-4.83 62.4-5.62 61.96-6.4 61.52-7.18 60.94-7.76L60.94-7.76 60.54-7.76Q59.67-7.76 59.32-7.03L59.32-7.03Q59.08-7.18 58.84-7.4 58.59-7.62 58.3-7.76L58.3-7.76Q57.18-7.42 55.95-7.18 54.73-6.93 53.51-6.93L53.51-6.93 52.83-6.93Q52.54-6.93 52.19-7.03L52.19-7.03Q51.71-6.84 51.32-6.57 50.93-6.3 50.44-6.3L50.44-6.3Q50.14-6.3 49.75-6.49L49.75-6.49Q49.46-6.49 49.48-6.25 49.51-6.01 49.17-6.01L49.17-6.01 48.73-6.01Q48.04-6.01 47.39-5.96 46.73-5.91 46.04-5.91L46.04-5.91Q45.11-5.91 44.14-6.15L44.14-6.15Q43.89-6.01 43.6-6.01L43.6-6.01Q43.41-5.91 43.31-5.69 43.21-5.47 43.11-5.3 43.02-5.13 42.84-5 42.67-4.88 42.38-4.93L42.38-4.93Q42.28-4.35 41.89-4 41.5-3.66 41.5-2.98L41.5-2.98Q40.96-2.69 40.62-2.25 40.28-1.81 39.94-1.32 39.6-0.83 39.23-0.39 38.86 0.05 38.33 0.29L38.33 0.29Q38.08 0.59 38.18 1.22L38.18 1.22Q37.64 1.66 36.86 2 36.08 2.34 35.4 2.34L35.4 2.34Q33.98 2.34 33.44 0.83L33.44 0.83Q33.44 0.34 33.52-0.22 33.59-0.78 33.74-1.29 33.88-1.81 34.18-2.22 34.47-2.64 35.01-2.83L35.01-2.83Q35.01-3.27 34.71-3.44 34.42-3.61 34.47-4.05L34.47-4.05Q35.79-4.69 36.77-5.71 37.74-6.74 38.55-7.89 39.35-9.03 40.18-10.21 41.01-11.38 42.04-12.3L42.04-12.3 42.04-13.33Q43.5-14.89 43.94-16.85L43.94-16.85Q44.48-16.94 44.65-17.33 44.82-17.72 44.82-18.26L44.82-18.26Q45.07-18.26 45.14-18.48 45.21-18.7 45.55-18.6L45.55-18.6Q45.99-19.78 46.53-20.75 47.07-21.73 47.6-22.73 48.14-23.73 48.56-24.8 48.97-25.88 49.17-27.2L49.17-27.2Q49.85-27.25 49.92-27.86 50-28.47 50.1-28.96L50.1-28.96Q50.83-29.64 51.19-30.57 51.56-31.49 51.85-32.5 52.15-33.5 52.51-34.5 52.88-35.5 53.56-36.28L53.56-36.28 53.56-36.43Q53.56-36.67 53.37-36.74 53.17-36.82 53.17-37.06L53.17-37.06Q53.22-37.11 53.22-37.16L53.22-37.16Q53.81-37.4 54.1-37.96 54.39-38.53 54.98-38.77L54.98-38.77Q56-37.94 56.78-37.77 57.57-37.6 58.84-37.5L58.84-37.5Q59.47-36.82 59.54-35.86 59.62-34.91 59.86-33.98L59.86-33.98Q60.25-32.42 60.72-30.93 61.18-29.44 61.42-27.88L61.42-27.88Q61.57-26.95 61.96-26.12 62.35-25.29 62.5-24.41L62.5-24.41Q62.6-23.73 62.5-22.88 62.4-22.02 62.69-21.39L62.69-21.39 63.03-20.61Q63.28-20.07 63.45-19.48 63.62-18.9 63.77-18.31L63.77-18.31Q64.16-16.85 64.48-15.16 64.79-13.48 65.48-12.11L65.48-12.11Q65.72-11.62 66.23-11.43 66.75-11.23 67.38-11.16 68.02-11.08 68.63-11.11 69.24-11.13 69.68-11.13L69.68-11.13 70.16-11.13Q70.46-11.13 70.75-11.04L70.75-11.04Q70.94-10.64 70.94-10.35L70.94-10.35Q70.94-9.77 70.55-9.42 70.16-9.08 70.16-8.64L70.16-8.64Q70.16-8.4 70.36-8.11L70.36-8.11Q70.16-8.15 69.77-8.15L69.77-8.15Q68.65-8.15 67.58-7.76L67.58-7.76Q67.97-6.93 68.63-6.37 69.28-5.81 70.02-5.32L70.02-5.32Q70.51-5.71 71.04-5.71L71.04-5.71Q71.63-5.71 72.14-5.44 72.65-5.18 73.24-5.18L73.24-5.18Q73.68-5.18 73.87-5.32L73.87-5.32Q74.27-4.88 74.51-4.42 74.75-3.96 75.14-3.56ZM59.86-11.38L59.86-11.38Q59.76-12.21 59.54-12.57 59.32-12.94 59.18-13.48L59.18-13.48Q58.98-14.16 58.91-14.94 58.84-15.72 58.69-16.46L58.69-16.46Q58.35-18.12 57.93-19.78 57.52-21.44 56.88-23L56.88-23Q57.08-23.29 57.08-23.54L57.08-23.54 57.08-23.68Q56.64-24.17 56.44-24.88 56.25-25.59 56.08-26.29 55.91-27 55.64-27.61 55.37-28.22 54.78-28.61L54.78-28.61Q54.64-28.32 54.64-27.93L54.64-27.93Q54.64-27.59 54.71-27.29 54.78-27 54.78-26.66L54.78-26.66Q54.29-26.42 54.07-25.9 53.85-25.39 53.37-25.1L53.37-25.1Q52.98-23.54 52.24-22.14 51.51-20.75 50.71-19.38 49.9-18.02 49.17-16.63 48.44-15.23 48-13.72L48-13.72Q47.36-13.28 47.14-12.6 46.92-11.91 46.92-11.23L46.92-11.23Q47.36-10.99 47.92-10.96 48.48-10.94 49.02-10.94 49.56-10.94 50.05-10.84 50.53-10.74 50.93-10.35L50.93-10.35Q51.56-10.55 52.32-10.62 53.07-10.69 53.56-11.04L53.56-11.04Q54.54-10.69 55.66-10.69L55.66-10.69Q56.25-10.69 56.81-10.79 57.37-10.89 57.91-11.04L57.91-11.04Q58.35-10.94 58.59-10.72 58.84-10.5 59.32-10.55L59.32-10.55Q59.57-10.74 59.62-10.96 59.67-11.18 59.86-11.38Z" opacity="1" transform="matrix(1,0,0,1,0,0)" fill="#ee3e38" class="wordmark-text-0" data-fill-palette-color="primary" id="text-0"></path></svg></g></svg></g></svg></g></svg></g></svg></g></svg></g></svg></g><defs></defs></svg><rect width="320" height="360" fill="none" stroke="none" visibility="hidden"></rect></g></svg></g></svg>